<svg width="166" height="50" viewBox="0 0 166 50" fill="none" xmlns="http://www.w3.org/2000/svg" role="img" aria-labelledby="title desc">
  <title id="title">Download on the App Store</title>
  <desc id="desc">Black App Store style download badge.</desc>
  <rect x="1" y="1" width="164" height="48" rx="12" fill="#07122D" stroke="#1E2C56" stroke-width="2"/>
  <path d="M35.6 25.7c0-3.8 3.1-5.7 3.2-5.8-1.8-2.6-4.5-2.9-5.5-3-2.3-.2-4.5 1.4-5.7 1.4-1.2 0-3-1.3-4.9-1.3-2.5 0-4.8 1.5-6.1 3.7-2.6 4.6-.7 11.4 1.9 15.1 1.2 1.8 2.7 3.9 4.6 3.8 1.9-.1 2.6-1.2 4.9-1.2s2.9 1.2 4.9 1.1c2-.1 3.3-1.8 4.5-3.7 1.4-2.1 2-4.1 2-4.2-.1 0-3.8-1.5-3.8-5.9Z" fill="white"/>
  <path d="M31.8 14.4c1-1.2 1.7-2.9 1.5-4.6-1.5.1-3.3 1-4.4 2.2-1 1.1-1.8 2.8-1.6 4.5 1.7.1 3.4-.8 4.5-2.1Z" fill="white"/>
  <text x="52" y="19" fill="white" font-family="Arial, Helvetica, sans-serif" font-size="9" font-weight="600" letter-spacing=".04em">Download on the</text>
  <text x="52" y="36" fill="white" font-family="Arial, Helvetica, sans-serif" font-size="20" font-weight="700">App Store</text>
</svg>
