<svg width="174" height="50" viewBox="0 0 174 50" fill="none" xmlns="http://www.w3.org/2000/svg" role="img" aria-labelledby="title desc">
  <title id="title">Get it on Google Play</title>
  <desc id="desc">Black Google Play style download badge.</desc>
  <rect x="1" y="1" width="172" height="48" rx="12" fill="#07122D" stroke="#1E2C56" stroke-width="2"/>
  <path d="M18.6 11.1c-.7.4-1.1 1.2-1.1 2.2v23.4c0 1 .4 1.8 1.1 2.2l13.9-13.9L18.6 11.1Z" fill="#20D56B"/>
  <path d="m36.8 20.8-4.3-2.5-13.9-7.2 13.9 13.9 4.3-4.2Z" fill="#19A8FF"/>
  <path d="m32.5 25-13.9 13.9 13.9-7.2 4.3-2.5-4.3-4.2Z" fill="#FFCB2D"/>
  <path d="m47.4 24-10.6-6.1-4.3 4.2 4.3 4.2 10.6-6.1c.8-.5.8-1.7 0-2.2Z" fill="#FF5A43"/>
  <text x="58" y="19" fill="white" font-family="Arial, Helvetica, sans-serif" font-size="9" font-weight="600" letter-spacing=".04em">GET IT ON</text>
  <text x="58" y="36" fill="white" font-family="Arial, Helvetica, sans-serif" font-size="19" font-weight="700">Google Play</text>
</svg>
