<svg width="174" height="50" xmlns="http://www.w3.org/2000/svg" aria-labelledby="title desc" role="img" fill="none">
 <title id="title">Get it on Google Play</title>

 <desc id="desc">Black Google Play style download badge.</desc>
 <g>
  <title>Layer 1</title>
  <rect id="svg_1" stroke-width="2" stroke="#1E2C56" fill="#07122D" rx="12" height="48" width="172" y="0.79167" x="1"/>
  <path id="svg_2" fill="#20D56B" d="m18.6,11.1c-0.7,0.4 -1.1,1.2 -1.1,2.2l0,23.4c0,1 0.4,1.8 1.1,2.2l13.9,-13.9l-13.9,-13.9z"/>
  <path id="svg_3" fill="#19A8FF" d="m36.8,20.8l-4.3,-2.5l-13.9,-7.2l13.9,13.9l4.3,-4.2z"/>
  <path id="svg_4" fill="#FFCB2D" d="m32.5,25l-13.9,13.9l13.9,-7.2l4.3,-2.5l-4.3,-4.2z"/>
  <path id="svg_5" fill="#FF5A43" d="m43.77232,24.78173l-7.2855,-4.18514l-4.40349,4.21174l4.3,4.65872l7.21333,-3.86538c0.8,-0.5 0.76208,-0.49315 -0.03792,-0.99315l0.21358,0.17321z"/>
  <text id="svg_6" letter-spacing=".04em" font-weight="600" font-size="9" font-family="Arial, Helvetica, sans-serif" fill="white" y="19" x="58">GET IT ON</text>
  <text id="svg_7" font-weight="700" font-size="19" font-family="Arial, Helvetica, sans-serif" fill="white" y="36" x="58">Google Play</text>
 </g>
</svg>